<?xml version="1.0" encoding="UTF-8"?>
<svg xmlns="http://www.w3.org/2000/svg" viewBox="0 0 600 400">
  <style>
    text { font-family: sans-serif; }
    .title { font-size: 16px; fill: #333; }
    .label { font-size: 14px; font-weight: bold; }
    .note { font-size: 12px; fill: #555; }
  </style>

  <!-- Title text -->
  <text x="30" y="30" class="title">- 4 icons behind one icon</text>
  <text x="30" y="55" class="title">- buttons: only LMB and RMB</text>

  <!-- Main container (sketch rectangle) -->
  <rect x="120" y="90" width="360" height="180" fill="none" stroke="#999" stroke-width="2" rx="5"/>

  <!-- LR box (green, left) -->
  <rect x="140" y="110" width="50" height="50" fill="none" stroke="#22c55e" stroke-width="3" rx="4"/>
  <text x="165" y="142" class="label" text-anchor="middle" fill="#22c55e">LR</text>

  <!-- L box (blue, center-left) -->
  <rect x="200" y="110" width="50" height="50" fill="none" stroke="#3b82f6" stroke-width="3" rx="4"/>
  <text x="225" y="142" class="label" text-anchor="middle" fill="#3b82f6">L</text>

  <!-- R box (red, center-right) -->
  <rect x="350" y="110" width="50" height="50" fill="none" stroke="#ef4444" stroke-width="3" rx="4"/>
  <text x="375" y="142" class="label" text-anchor="middle" fill="#ef4444">R</text>

  <!-- RL box (yellow, right) -->
  <rect x="410" y="110" width="50" height="50" fill="none" stroke="#eab308" stroke-width="3" rx="4"/>
  <text x="435" y="142" class="label" text-anchor="middle" fill="#eab308">RL</text>

  <!-- Connection lines from L to LR -->
  <line x1="200" y1="135" x2="190" y2="135" stroke="#333" stroke-width="2"/>

  <!-- Connection lines from R to RL -->
  <line x1="400" y1="135" x2="410" y2="135" stroke="#333" stroke-width="2"/>

  <!-- Connection lines down to book/page icon -->
  <line x1="225" y1="160" x2="290" y2="200" stroke="#333" stroke-width="2"/>
  <line x1="375" y1="160" x2="310" y2="200" stroke="#333" stroke-width="2"/>

  <!-- Book/page icon (represents the stenocon unit) -->
  <rect x="280" y="200" width="40" height="50" fill="none" stroke="#333" stroke-width="2" rx="3"/>
  <line x1="300" y1="200" x2="300" y2="250" stroke="#333" stroke-width="1"/>
  <text x="288" y="230" class="label" fill="#3b82f6" font-size="12">L</text>
  <text x="305" y="230" class="label" fill="#ef4444" font-size="12">R</text>

  <!-- Bottom note -->
  <text x="30" y="320" class="title">- undo selection by releasing buttons</text>
  <text x="40" y="345" class="title">in reverse order</text>

  <!-- Legend at bottom -->
  <g transform="translate(30, 365)">
    <rect x="0" y="0" width="16" height="16" fill="none" stroke="#3b82f6" stroke-width="2" rx="2"/>
    <text x="22" y="13" class="note">L = LMB</text>

    <rect x="90" y="0" width="16" height="16" fill="none" stroke="#ef4444" stroke-width="2" rx="2"/>
    <text x="112" y="13" class="note">R = RMB</text>

    <rect x="180" y="0" width="16" height="16" fill="none" stroke="#22c55e" stroke-width="2" rx="2"/>
    <text x="202" y="13" class="note">LR = LMB+RMB</text>

    <rect x="310" y="0" width="16" height="16" fill="none" stroke="#eab308" stroke-width="2" rx="2"/>
    <text x="332" y="13" class="note">RL = RMB+LMB</text>
  </g>
</svg>
